ffmpeg started on 2023-02-27 at 22:09:13
Report written to "D:/java/GitHub/pornMagnetSpringBoot/jiuse911Modeul/Logs/2023-02-27_22-08-23-314_ffreport.log"
Command line:
"D:\\java\\GitHub\\pornMagnetSpringBoot\\ffmpeg.exe" -loglevel warning -i "concat:00.ts|01.ts|02.ts|03.ts|04.ts|05.ts|06.ts|07.ts|08.ts|09.ts|10.ts|11.ts|12.ts|13.ts|14.ts|15.ts|16.ts|17.ts|18.ts|19.ts|20.ts|21.ts|22.ts|23.ts|24.ts|25.ts|26.ts|27.ts|" -map "0:v?" -map "0:a?" -map "0:s?" -metadata "date=2023-02-27T22:09:12.9144066+08:00" -metadata "encoding_tool=" -metadata "title=" -metadata "copyright=" -metadata "comment=" -metadata:s:a:0 "handler_name=" -metadata:s:a:0 "handler=" -c copy -y -bsf:a aac_adtstoasc "D:\\java\\GitHub\\pornMagnetSpringBoot\\Downloads\\\xb4\xf2\xc2\xe9\xbd\xab\xc8\xcf\xca\xb6\xb5\xc4\xb4\xf3\xc4\xcc\xca\xec\xc5\xae\xc8\xcb\xc6\xde\xcd\xb5\xc7\xe9\xa3\xa8\xb4\xf3\xc4\xcc\xb7\xca\xca\xec\xc5\xae\xc0\xcf\xc5\xae\xb4\xf3\xc2\xe8\xcd\xb5\xc7\xe9\xd7\xd4\xc5\xc4\xa3\xa9.mp4"
ffmpeg version N-94813-g85386c36e3-ffmpeg-for-N_m3u8DL-CLI Copyright (c) 2000-2019 the FFmpeg developers
  built with gcc 8.2.0 (GCC)
  libavutil      56. 35.100 / 56. 35.100
  libavcodec     58. 56.101 / 58. 56.101
  libavformat    58. 32.104 / 58. 32.104
  libavfilter     7. 58.102 /  7. 58.102
  libavresample   4.  0.  0 /  4.  0.  0
  libswresample   3.  6.100 /  3.  6.100
Input #0, mpegts, from 'concat:00.ts|01.ts|02.ts|03.ts|04.ts|05.ts|06.ts|07.ts|08.ts|09.ts|10.ts|11.ts|12.ts|13.ts|14.ts|15.ts|16.ts|17.ts|18.ts|19.ts|20.ts|21.ts|22.ts|23.ts|24.ts|25.ts|26.ts|27.ts|':
  Duration: 00:04:01.14, start: 1.458667, bitrate: 658 kb/s
  Program 1 
    Metadata:
      service_name    : Service01
      service_provider: FFmpeg
    Stream #0:0[0x100]: Video: h264 ([27][0][0][0] / 0x001B), yuv420p(progressive), 600x336, 25 fps, 25 tbr, 90k tbn, 50 tbc
    Stream #0:1[0x101](und): Audio: aac ([15][0][0][0] / 0x000F), 48000 Hz, stereo, fltp, 141 kb/s
Output #0, mp4, to 'D:\java\GitHub\pornMagnetSpringBoot\Downloads\打麻将认识的大奶熟女人妻偷情（大奶肥熟女老女大妈偷情自拍）.mp4':
  Metadata:
    date            : 2023-02-27T22:09:12.9144066+08:00
    encoder         : Lavf58.32.104
    Stream #0:0: Video: h264 (avc1 / 0x31637661), yuv420p(progressive), 600x336, q=2-31, 25 fps, 25 tbr, 90k tbn, 90k tbc
    Stream #0:1(und): Audio: aac (mp4a / 0x6134706D), 48000 Hz, stereo, fltp, 141 kb/s
Stream mapping:
  Stream #0:0 -> #0:0 (copy)
  Stream #0:1 -> #0:1 (copy)
Press [q] to stop, [?] for help
frame= 6028 fps=0.0 q=-1.0 Lsize=   18161kB time=00:04:01.04 bitrate= 617.2kbits/s speed=2.74e+03x    
video:14229kB audio:3776kB subtitle:0kB other streams:0kB global headers:0kB muxing overhead: 0.865971%
